<?xml version="1.0" encoding="UTF-8" standalone="no"?>
<!DOCTYPE svg PUBLIC "-//W3C//DTD SVG 1.1//EN" "http://www.w3.org/Graphics/SVG/1.1/DTD/svg11.dtd">
<svg version="1.1" xmlns="http://www.w3.org/2000/svg" xmlns:xlink="http://www.w3.org/1999/xlink" preserveAspectRatio="xMidYMid meet" viewBox="419.36923076923046 363.9839232602842 134.03076923076952 125.41607673971578" width="130.03" height="121.42"><defs><path d="M426.17 406.36C426.17 405.01 426.17 394.2 426.17 392.84C426.17 380.47 436.95 370.4 450.21 370.4C451.65 370.4 463.23 370.4 464.68 370.4C466.28 370.4 467.58 369.19 467.58 367.69C467.58 366.2 466.28 364.99 464.68 364.99C463.23 364.99 451.65 364.99 450.21 364.99C433.75 364.99 420.37 377.48 420.37 392.85C420.37 394.2 420.37 405.01 420.37 406.36C420.37 407.85 421.67 409.06 423.27 409.06C424.87 409.06 426.17 407.85 426.17 406.36Z" id="aZKFUnJZg"></path><path d="M506.13 450.84C493.64 460.53 475.52 460.53 463.03 450.84C461.8 449.88 459.97 450.04 458.95 451.19C457.93 452.34 458.09 454.05 459.33 455C466.64 460.68 475.61 463.52 484.58 463.52C493.55 463.52 502.52 460.68 509.84 455C511.07 454.05 511.24 452.34 510.21 451.19C509.19 450.04 507.36 449.88 506.13 450.84Z" id="aHiiI1u4w"></path><path d="M544.6 445.02C544.6 446.38 544.6 457.19 544.6 458.54C544.6 470.92 533.82 480.99 520.56 480.99C519.12 480.99 507.54 480.99 506.09 480.99C504.49 480.99 503.19 482.2 503.19 483.69C503.19 485.19 504.49 486.4 506.09 486.4C507.54 486.4 519.12 486.4 520.56 486.4C537.02 486.4 550.4 473.9 550.4 458.54C550.4 457.19 550.4 446.38 550.4 445.02C550.4 443.53 549.1 442.32 547.5 442.32C545.9 442.32 544.6 443.53 544.6 445.02Z" id="b4GLuBXl3n"></path><path d="M517.89 416.91C517.89 416.14 517.89 409.95 517.89 409.18C517.89 407.36 516.31 405.89 514.37 405.89C512.43 405.89 510.85 407.36 510.85 409.18C510.85 409.95 510.85 416.14 510.85 416.91C510.85 418.73 512.43 420.2 514.37 420.2C516.31 420.2 517.89 418.73 517.89 416.91Z" id="c1f1BmLkvd"></path><path d="M450.21 480.99C436.95 480.99 426.17 470.92 426.17 458.54C426.17 457.19 426.17 446.38 426.17 445.02C426.17 443.53 424.87 442.32 423.27 442.32C421.67 442.32 420.37 443.53 420.37 445.02C420.37 446.38 420.37 457.19 420.37 458.54C420.37 473.9 433.76 486.4 450.21 486.4C451.65 486.4 463.23 486.4 464.68 486.4C466.28 486.4 467.58 485.19 467.58 483.69C467.58 482.2 466.28 480.99 464.68 480.99C461.78 480.99 451.65 480.99 450.21 480.99Z" id="aGLOmPE2U"></path><path d="M452.88 416.91C452.88 418.72 454.45 420.2 456.39 420.2C458.34 420.2 459.91 418.72 459.91 416.91C459.91 416.14 459.91 409.95 459.91 409.18C459.91 407.36 458.34 405.89 456.39 405.89C454.45 405.89 452.88 407.36 452.88 409.18C452.88 410.72 452.88 416.14 452.88 416.91Z" id="c4qKcNzEQ4"></path><path d="M506.09 364.98C504.49 364.98 503.19 366.2 503.19 367.69C503.19 369.18 504.49 370.4 506.09 370.4C507.54 370.4 519.12 370.4 520.56 370.4C533.82 370.4 544.6 380.47 544.6 392.84C544.6 394.19 544.6 405 544.6 406.36C544.6 407.85 545.9 409.06 547.5 409.06C549.1 409.06 550.4 407.85 550.4 406.36C550.4 405 550.4 394.2 550.4 392.84C550.4 377.48 537.01 364.98 520.56 364.98C517.67 364.98 507.54 364.98 506.09 364.98Z" id="cbQqzQq6P"></path><path d="M488.28 427.34C488.28 425.33 488.28 409.25 488.28 407.23C488.28 405.74 486.98 404.53 485.38 404.53C483.78 404.53 482.48 405.74 482.48 407.23C482.48 409.25 482.48 425.33 482.48 427.34C482.48 430.11 480.07 432.37 477.1 432.37C475.5 432.37 474.2 433.58 474.2 435.07C474.2 436.57 475.5 437.78 477.1 437.78C483.27 437.78 488.28 433.1 488.28 427.34Z" id="aGMKtpM5d"></path></defs><g><g><use xlink:href="#aZKFUnJZg" opacity="1" fill="#ffffff" fill-opacity="1"></use><g><use xlink:href="#aZKFUnJZg" opacity="1" fill-opacity="0" stroke="#ffffff" stroke-width="2" stroke-opacity="1"></use></g></g><g><use xlink:href="#aHiiI1u4w" opacity="1" fill="#ffffff" fill-opacity="1"></use><g><use xlink:href="#aHiiI1u4w" opacity="1" fill-opacity="0" stroke="#ffffff" stroke-width="2" stroke-opacity="1"></use></g></g><g><use xlink:href="#b4GLuBXl3n" opacity="1" fill="#ffffff" fill-opacity="1"></use><g><use xlink:href="#b4GLuBXl3n" opacity="1" fill-opacity="0" stroke="#ffffff" stroke-width="2" stroke-opacity="1"></use></g></g><g><use xlink:href="#c1f1BmLkvd" opacity="1" fill="#ffffff" fill-opacity="1"></use><g><use xlink:href="#c1f1BmLkvd" opacity="1" fill-opacity="0" stroke="#ffffff" stroke-width="2" stroke-opacity="1"></use></g></g><g><use xlink:href="#aGLOmPE2U" opacity="1" fill="#ffffff" fill-opacity="1"></use><g><use xlink:href="#aGLOmPE2U" opacity="1" fill-opacity="0" stroke="#ffffff" stroke-width="2" stroke-opacity="1"></use></g></g><g><use xlink:href="#c4qKcNzEQ4" opacity="1" fill="#ffffff" fill-opacity="1"></use><g><use xlink:href="#c4qKcNzEQ4" opacity="1" fill-opacity="0" stroke="#ffffff" stroke-width="2" stroke-opacity="1"></use></g></g><g><use xlink:href="#cbQqzQq6P" opacity="1" fill="#ffffff" fill-opacity="1"></use><g><use xlink:href="#cbQqzQq6P" opacity="1" fill-opacity="0" stroke="#ffffff" stroke-width="2" stroke-opacity="1"></use></g></g><g><use xlink:href="#aGMKtpM5d" opacity="1" fill="#ffffff" fill-opacity="1"></use><g><use xlink:href="#aGMKtpM5d" opacity="1" fill-opacity="0" stroke="#ffffff" stroke-width="2" stroke-opacity="1"></use></g></g></g></svg>