<?xml version="1.0" encoding="UTF-8" standalone="no"?>
<!DOCTYPE svg PUBLIC "-//W3C//DTD SVG 1.1//EN" "http://www.w3.org/Graphics/SVG/1.1/DTD/svg11.dtd">
<svg version="1.1" xmlns="http://www.w3.org/2000/svg" xmlns:xlink="http://www.w3.org/1999/xlink" preserveAspectRatio="xMidYMid meet" viewBox="398.9562670951842 267.052568191954 70.8991688656613 65.82621968683412" width="66.9" height="61.83"><defs><path d="M399.96 291.52C399.96 303.7 399.96 312.74 399.96 318.66C399.96 324.57 403.49 328.31 410.55 329.88C432.59 329.88 447.4 329.88 454.97 329.88C462.55 329.88 466.51 326.14 466.86 318.66L466.86 291.52L465.05 291.52C465.05 304.05 465.05 313.09 465.05 318.66C465.05 324.23 461.69 327.27 454.97 327.79C430.35 328.31 415.54 328.31 410.55 327.79C405.55 327.27 402.63 324.23 401.76 318.66L401.76 291.52L399.96 291.52Z" id="h9sm6mK0"></path><path d="M453.09 268.05C457.72 268.05 461.47 271.8 461.47 276.43C461.47 285.93 461.47 306.04 461.47 315.53C461.47 320.16 457.72 323.91 453.09 323.91C443.59 323.91 423.48 323.91 413.99 323.91C409.36 323.91 405.61 320.16 405.61 315.53C405.61 306.04 405.61 285.93 405.61 276.43C405.61 271.8 409.36 268.05 413.99 268.05C423.48 268.05 443.59 268.05 453.09 268.05Z" id="au9toD9d"></path></defs><g><g><use xlink:href="#h9sm6mK0" opacity="1" fill="#424242" fill-opacity="1"></use><g><use xlink:href="#h9sm6mK0" opacity="1" fill-opacity="0" stroke="#424242" stroke-width="1" stroke-opacity="1"></use></g></g><g><use xlink:href="#au9toD9d" opacity="1" fill="#424242" fill-opacity="1"></use></g></g></svg>